<mxfile host="app.diagrams.net" agent="Mozilla/5.0 (Macintosh; Intel Mac OS X 10_15_7) AppleWebKit/537.36 (KHTML, like Gecko) Chrome/129.0.0.0 Safari/537.36" version="24.7.17">
  <diagram name="第 1 页" id="wgkdEwtljE98fDkMjsSQ">
    <mxGraphModel dx="1026" dy="650" grid="1" gridSize="10" guides="1" tooltips="1" connect="1" arrows="1" fold="1" page="1" pageScale="1" pageWidth="827" pageHeight="1169" math="0" shadow="0">
      <root>
        <mxCell id="0" />
        <mxCell id="1" parent="0" />
        <mxCell id="AvifxIiAIujcWxlqP-U0-16" value="" style="edgeStyle=orthogonalEdgeStyle;rounded=0;orthogonalLoop=1;jettySize=auto;html=1;" edge="1" parent="1" source="AvifxIiAIujcWxlqP-U0-1" target="AvifxIiAIujcWxlqP-U0-15">
          <mxGeometry relative="1" as="geometry" />
        </mxCell>
        <mxCell id="AvifxIiAIujcWxlqP-U0-1" value="标签检测任务提交" style="ellipse;whiteSpace=wrap;html=1;" vertex="1" parent="1">
          <mxGeometry x="240" y="100" width="120" height="50" as="geometry" />
        </mxCell>
        <mxCell id="AvifxIiAIujcWxlqP-U0-20" value="" style="edgeStyle=orthogonalEdgeStyle;rounded=0;orthogonalLoop=1;jettySize=auto;html=1;" edge="1" parent="1" source="AvifxIiAIujcWxlqP-U0-2" target="AvifxIiAIujcWxlqP-U0-19">
          <mxGeometry relative="1" as="geometry" />
        </mxCell>
        <mxCell id="AvifxIiAIujcWxlqP-U0-2" value="&lt;div&gt;是否校验表存在&lt;/div&gt;是否校验sql合规？&lt;div&gt;不存在特殊函数？&lt;/div&gt;&lt;div&gt;结果只有两列？&lt;/div&gt;" style="rhombus;whiteSpace=wrap;html=1;" vertex="1" parent="1">
          <mxGeometry x="470" y="200" width="340" height="140" as="geometry" />
        </mxCell>
        <mxCell id="AvifxIiAIujcWxlqP-U0-7" value="" style="edgeStyle=orthogonalEdgeStyle;rounded=0;orthogonalLoop=1;jettySize=auto;html=1;" edge="1" parent="1" source="AvifxIiAIujcWxlqP-U0-4" target="AvifxIiAIujcWxlqP-U0-6">
          <mxGeometry relative="1" as="geometry" />
        </mxCell>
        <mxCell id="AvifxIiAIujcWxlqP-U0-4" value="odps执行&lt;div&gt;explan计划&lt;/div&gt;" style="shape=process;whiteSpace=wrap;html=1;backgroundOutline=1;" vertex="1" parent="1">
          <mxGeometry x="240" y="400" width="120" height="60" as="geometry" />
        </mxCell>
        <mxCell id="AvifxIiAIujcWxlqP-U0-9" value="" style="edgeStyle=orthogonalEdgeStyle;rounded=0;orthogonalLoop=1;jettySize=auto;html=1;" edge="1" parent="1" source="AvifxIiAIujcWxlqP-U0-6" target="AvifxIiAIujcWxlqP-U0-8">
          <mxGeometry relative="1" as="geometry" />
        </mxCell>
        <mxCell id="AvifxIiAIujcWxlqP-U0-10" value="不通过" style="edgeLabel;html=1;align=center;verticalAlign=middle;resizable=0;points=[];" vertex="1" connectable="0" parent="AvifxIiAIujcWxlqP-U0-9">
          <mxGeometry x="-0.3" relative="1" as="geometry">
            <mxPoint as="offset" />
          </mxGeometry>
        </mxCell>
        <mxCell id="AvifxIiAIujcWxlqP-U0-12" value="" style="edgeStyle=orthogonalEdgeStyle;rounded=0;orthogonalLoop=1;jettySize=auto;html=1;" edge="1" parent="1" source="AvifxIiAIujcWxlqP-U0-6" target="AvifxIiAIujcWxlqP-U0-11">
          <mxGeometry relative="1" as="geometry" />
        </mxCell>
        <mxCell id="AvifxIiAIujcWxlqP-U0-6" value="是否通过" style="rhombus;whiteSpace=wrap;html=1;" vertex="1" parent="1">
          <mxGeometry x="260" y="530" width="80" height="80" as="geometry" />
        </mxCell>
        <mxCell id="AvifxIiAIujcWxlqP-U0-8" value="返回不通过" style="whiteSpace=wrap;html=1;" vertex="1" parent="1">
          <mxGeometry x="70" y="540" width="120" height="60" as="geometry" />
        </mxCell>
        <mxCell id="AvifxIiAIujcWxlqP-U0-14" value="" style="edgeStyle=orthogonalEdgeStyle;rounded=0;orthogonalLoop=1;jettySize=auto;html=1;" edge="1" parent="1" source="AvifxIiAIujcWxlqP-U0-11" target="AvifxIiAIujcWxlqP-U0-13">
          <mxGeometry relative="1" as="geometry" />
        </mxCell>
        <mxCell id="AvifxIiAIujcWxlqP-U0-11" value="提交查询任务至odps平台" style="shape=process;whiteSpace=wrap;html=1;backgroundOutline=1;" vertex="1" parent="1">
          <mxGeometry x="240" y="665" width="120" height="60" as="geometry" />
        </mxCell>
        <mxCell id="AvifxIiAIujcWxlqP-U0-13" value="获取id返回id结束" style="whiteSpace=wrap;html=1;" vertex="1" parent="1">
          <mxGeometry x="240" y="805" width="120" height="60" as="geometry" />
        </mxCell>
        <mxCell id="AvifxIiAIujcWxlqP-U0-18" value="" style="edgeStyle=orthogonalEdgeStyle;rounded=0;orthogonalLoop=1;jettySize=auto;html=1;" edge="1" parent="1" source="AvifxIiAIujcWxlqP-U0-15" target="AvifxIiAIujcWxlqP-U0-17">
          <mxGeometry relative="1" as="geometry" />
        </mxCell>
        <mxCell id="AvifxIiAIujcWxlqP-U0-21" style="edgeStyle=orthogonalEdgeStyle;rounded=0;orthogonalLoop=1;jettySize=auto;html=1;entryX=0.5;entryY=0;entryDx=0;entryDy=0;" edge="1" parent="1" source="AvifxIiAIujcWxlqP-U0-15" target="AvifxIiAIujcWxlqP-U0-4">
          <mxGeometry relative="1" as="geometry" />
        </mxCell>
        <mxCell id="AvifxIiAIujcWxlqP-U0-15" value="校验查询结果&lt;div&gt;是否两列&lt;/div&gt;" style="rhombus;whiteSpace=wrap;html=1;" vertex="1" parent="1">
          <mxGeometry x="245" y="220" width="110" height="85" as="geometry" />
        </mxCell>
        <mxCell id="AvifxIiAIujcWxlqP-U0-17" value="返回不通过" style="whiteSpace=wrap;html=1;" vertex="1" parent="1">
          <mxGeometry x="70" y="232.5" width="120" height="60" as="geometry" />
        </mxCell>
        <mxCell id="AvifxIiAIujcWxlqP-U0-19" value="&lt;div&gt;是否可以全放在explain里处理&lt;/div&gt;" style="rhombus;whiteSpace=wrap;html=1;" vertex="1" parent="1">
          <mxGeometry x="470" y="420" width="340" height="140" as="geometry" />
        </mxCell>
      </root>
    </mxGraphModel>
  </diagram>
</mxfile>
